<svg width="5308" height="5308" viewBox="0 0 5308 5308" fill="none" xmlns="http://www.w3.org/2000/svg">
<path d="M470.967 3521.88C474.916 3403.4 491.207 3292.32 519.84 3188.65C548.474 3084.98 582.537 2994.64 622.031 2917.62C661.525 2840.61 700.526 2764.58 739.032 2689.54C777.539 2614.51 811.109 2530.09 839.742 2436.29C868.375 2342.49 884.667 2244.25 888.616 2141.56C894.54 1971.74 840.236 1861.16 725.703 1809.81C650.664 1764.4 524.777 1708.61 348.041 1642.46C171.305 1576.31 55.2917 1529.41 0 1501.76C51.3423 1456.34 117.001 1397.1 196.977 1324.04C276.952 1250.97 346.56 1188.28 405.801 1135.95C465.042 1083.62 520.334 1037.71 571.676 998.212C449.245 917.249 388.029 801.729 388.029 651.652C388.029 543.043 430.485 447.764 515.397 365.814C600.31 283.863 692.133 242.888 790.868 242.888C875.781 242.888 953.781 276.952 1024.87 345.079C1095.96 413.206 1152.24 488.739 1193.71 571.676C1179.88 478.865 1178.9 392.472 1190.75 312.497C1202.59 232.521 1238.63 160.445 1298.86 96.2667C1359.09 32.0889 1443.51 0 1552.12 0C1662.7 0 1757.49 39.9877 1836.47 119.963C1915.46 199.939 1954.96 297.193 1954.96 411.725C1954.96 504.536 1926.32 589.449 1869.06 666.462C1884.85 668.437 1899.66 671.399 1913.49 675.348C1927.31 679.298 1939.16 682.753 1949.03 685.715C1958.9 688.677 1969.77 694.108 1981.61 702.007C1993.46 709.906 2002.84 715.336 2009.75 718.298C2016.66 721.26 2025.55 729.159 2036.41 741.994C2047.27 754.83 2054.68 762.729 2058.63 765.691C2062.58 768.653 2070.97 779.02 2083.8 796.792C2096.64 814.565 2104.54 825.919 2107.5 830.856C2110.46 835.793 2119.35 849.616 2134.16 872.325C2148.97 895.034 2158.35 909.35 2162.3 915.275C2221.54 1002.16 2277.33 1132.49 2329.66 1306.27C2381.98 1480.04 2426.42 1648.38 2462.95 1811.3C2499.48 1974.21 2524.66 2071.46 2538.48 2103.06C2651.04 2199.82 2772.98 2281.27 2904.29 2347.43C3035.61 2413.58 3156.56 2447.64 3267.15 2449.62C3391.55 2451.59 3525.34 2415.55 3668.5 2341.5C3811.67 2267.45 3945.95 2174.15 4071.34 2061.59C4196.74 1949.03 4318.18 1823.64 4435.68 1685.41C4553.17 1547.18 4653.88 1415.86 4737.8 1291.46C4821.73 1167.05 4888.38 1054.49 4937.74 953.781C4967.36 1036.72 4991.06 1111.26 5008.83 1177.42C5026.6 1243.57 5040.43 1330.46 5050.3 1438.08C5060.17 1545.7 5056.72 1642.95 5039.93 1729.84C5023.15 1816.73 4985.14 1909.04 4925.9 2006.79C4866.65 2104.54 4784.7 2189.94 4680.04 2263.01C4683.99 2266.96 4710.65 2270.41 4760.02 2273.38C4809.39 2276.34 4861.22 2282.26 4915.53 2291.15C4969.83 2300.03 5027.59 2330.15 5088.81 2381.49C5150.02 2432.83 5195.44 2502.94 5225.06 2591.8C5120.4 2591.8 5027.59 2623.89 4946.63 2688.06C4865.67 2752.24 4814.32 2817.9 4792.6 2885.04C4861.72 2869.24 4955.52 2894.42 5074 2960.57C5192.48 3026.73 5270.48 3115.09 5308 3225.68C5219.14 3233.58 5149.04 3264.18 5097.69 3317.5C5046.35 3370.82 4995.01 3465.6 4943.67 3601.86C4876.53 3783.53 4770.39 3932.62 4625.25 4049.13C4480.11 4165.63 4319.66 4242.65 4143.91 4280.17C3968.16 4317.69 3781.55 4330.52 3584.08 4318.67C3386.61 4306.83 3200.5 4271.28 3025.74 4212.04C2850.98 4152.8 2693.49 4076.28 2553.29 3982.48C2413.09 3888.68 2310.4 3786.49 2245.24 3675.91C2383.47 3995.81 2583.9 4245.12 2846.53 4423.83C3109.17 4602.54 3385.63 4692.88 3675.91 4694.85C3889.18 4696.83 4103.43 4629.69 4318.67 4493.44C4257.46 4633.64 4160.2 4758.54 4026.91 4868.13C3893.62 4977.73 3748.48 5062.15 3591.49 5121.39C3434.5 5180.63 3284.92 5225.06 3142.74 5254.68C3000.56 5284.3 2871.22 5301.09 2754.71 5305.04C2022.1 5326.76 1454.37 5177.67 1051.53 4857.77C648.69 4537.87 455.169 4092.57 470.967 3521.88ZM1134.47 850.109C1053.5 850.109 984.883 878.249 928.604 934.528C872.325 990.807 844.185 1059.43 844.185 1140.39C844.185 1221.35 872.325 1289.97 928.604 1346.25C984.883 1402.53 1053.5 1430.67 1134.47 1430.67C1215.43 1430.67 1284.05 1402.53 1340.33 1346.25C1396.61 1289.97 1424.75 1221.35 1424.75 1140.39C1424.75 1059.43 1396.61 990.807 1340.33 934.528C1284.05 878.249 1215.43 850.109 1134.47 850.109Z" fill="#36C9A0"/>
<path d="M348.041 1642.46C524.777 1708.61 650.664 1764.4 725.703 1809.81C1479.07 2180.66 1981.61 3317.5 2245.24 3675.91C2310.4 3786.49 2413.09 3888.68 2553.29 3982.48C2693.49 4076.28 2850.98 4152.8 3025.74 4212.04C3200.5 4271.28 3386.61 4306.83 3584.08 4318.67C3781.55 4330.52 3968.16 4317.69 4143.91 4280.17C4319.66 4242.65 4480.11 4165.63 4625.25 4049.13C4770.39 3932.62 4876.53 3783.53 4943.67 3601.86C4995.01 3465.6 5046.35 3370.82 5097.69 3317.5C5149.04 3264.18 5219.14 3233.58 5308 3225.68C5270.48 3115.09 5192.48 3026.73 5074 2960.57C4955.52 2894.42 4861.72 2869.24 4792.6 2885.04C4814.32 2817.9 4865.67 2752.24 4946.63 2688.06C5027.59 2623.89 5120.4 2591.8 5225.06 2591.8C5195.44 2502.94 5150.02 2432.83 5088.81 2381.49C5027.59 2330.15 4969.83 2300.03 4915.53 2291.15C4861.22 2282.26 4809.39 2276.34 4760.02 2273.38C4710.65 2270.41 4683.99 2266.96 4680.04 2263.01C4784.7 2189.94 4866.65 2104.54 4925.9 2006.79C4985.14 1909.04 5023.15 1816.73 5039.93 1729.84C5056.72 1642.95 5060.17 1545.7 5050.3 1438.08C5040.43 1330.46 5026.6 1243.57 5008.83 1177.42C4991.06 1111.26 4967.36 1036.72 4937.74 953.781C4888.38 1054.49 4821.73 1167.05 4737.8 1291.46C4653.88 1415.86 4553.17 1547.18 4435.68 1685.41C4318.18 1823.64 4196.74 1949.03 4071.34 2061.59C3945.95 2174.15 3811.67 2267.45 3668.5 2341.5C3525.34 2415.55 3391.55 2451.59 3267.15 2449.62C3156.56 2447.64 3035.61 2413.58 2904.29 2347.43C2772.98 2281.27 2651.04 2199.82 2538.48 2103.06C2524.66 2071.46 2499.48 1974.21 2462.95 1811.3C2426.42 1648.38 2381.98 1480.04 2329.66 1306.27C2277.33 1132.49 2221.54 1002.16 2162.3 915.275C2158.35 909.35 2148.97 895.034 2134.16 872.325C2119.35 849.616 2110.46 835.793 2107.5 830.856C2104.54 825.919 2096.64 814.565 2083.8 796.792C2070.97 779.02 2062.58 768.653 2058.63 765.691C2054.68 762.729 2047.27 754.83 2036.41 741.994C2025.55 729.159 2016.66 721.26 2009.75 718.298C2002.84 715.336 1993.46 709.906 1981.61 702.007C1969.77 694.108 1958.9 688.677 1949.03 685.715C1939.16 682.753 1927.31 679.298 1913.49 675.348C1899.66 671.399 1884.85 668.437 1869.06 666.462C1926.32 589.449 1954.96 504.536 1954.96 411.725C1954.96 297.193 1915.46 199.939 1836.47 119.963C1757.49 39.9877 1662.7 0 1552.12 0C1443.51 0 1359.09 32.0889 1298.86 96.2667C1238.63 160.445 1202.59 232.521 1190.75 312.497C1178.9 392.472 1179.88 478.865 1193.71 571.676C1152.24 488.739 1095.96 413.206 1024.87 345.079C953.781 276.952 875.781 242.888 790.868 242.888C692.133 242.888 600.31 283.863 515.397 365.814C430.485 447.764 388.029 543.043 388.029 651.652C388.029 801.729 449.245 917.249 571.676 998.212C520.334 1037.71 465.042 1083.62 405.801 1135.95C346.56 1188.28 276.952 1250.97 196.977 1324.04C117.001 1397.1 51.3423 1456.34 0 1501.76C55.2917 1529.41 171.305 1576.31 348.041 1642.46Z" fill="#29A389"/>
<circle cx="1220" cy="1133" r="257" fill="white"/>
</svg>
